<svg xmlns="http://www.w3.org/2000/svg" width="960" height="792" viewBox="0 0 960 792" font-family="Segoe UI,Helvetica,Arial,sans-serif">
<rect width="960" height="792" rx="14" fill="#fafafa" stroke="#ddd"/>
<g transform="translate(50,0)">
<text x="430.0" y="40" text-anchor="middle" font-size="22" font-weight="700" fill="#222">ESP32 DevKit pin map</text>
<text x="430.0" y="64" text-anchor="middle" font-size="13" fill="#666">ESP32 Stepper Motor Breakout Board V1.1 · left column = header J7 · right column = header J8 · antenna end at top</text>
<rect x="355.0" y="88" width="150" height="552" rx="10" fill="#2b2b2b"/>
<rect x="385.0" y="120" width="90" height="110" rx="4" fill="#bfbfbf"/>
<text x="430.0" y="172" text-anchor="middle" font-size="14" font-weight="700" fill="#333">ESP-32</text>
<text x="430.0" y="190" text-anchor="middle" font-size="9" fill="#333">WROOM</text>
<circle cx="367.0" cy="110" r="6" fill="#d4a017" stroke="#8a6a00"/>
<rect x="227.0" y="99" width="118" height="22" rx="11" fill="#fde3cc" stroke="#b35a00" stroke-width="1"/>
<text x="286.0" y="114.5" text-anchor="middle" font-size="12.5" font-weight="600" fill="#222">3V3</text>
<circle cx="367.0" cy="138" r="6" fill="#d4a017" stroke="#8a6a00"/>
<rect x="227.0" y="127" width="118" height="22" rx="11" fill="#ffffff" stroke="#888" stroke-width="1"/>
<text x="286.0" y="142.5" text-anchor="middle" font-size="12.5" font-weight="600" fill="#222">EN</text>
<circle cx="367.0" cy="166" r="6" fill="#d4a017" stroke="#8a6a00"/>
<rect x="227.0" y="155" width="118" height="22" rx="11" fill="#fff3b0" stroke="#a07800" stroke-width="1"/>
<text x="286.0" y="170.5" text-anchor="middle" font-size="12.5" font-weight="600" fill="#222">GPIO36 (VP)</text>
<text x="215.0" y="170.5" text-anchor="end" font-size="13" font-weight="700" fill="#a07800">Y MIN</text>
<circle cx="367.0" cy="194" r="6" fill="#d4a017" stroke="#8a6a00"/>
<rect x="227.0" y="183" width="118" height="22" rx="11" fill="#fff3b0" stroke="#a07800" stroke-width="1"/>
<text x="286.0" y="198.5" text-anchor="middle" font-size="12.5" font-weight="600" fill="#222">GPIO39 (VN)</text>
<text x="215.0" y="198.5" text-anchor="end" font-size="13" font-weight="700" fill="#a07800">Y MAX</text>
<circle cx="367.0" cy="222" r="6" fill="#d4a017" stroke="#8a6a00"/>
<rect x="227.0" y="211" width="118" height="22" rx="11" fill="#fff3b0" stroke="#a07800" stroke-width="1"/>
<text x="286.0" y="226.5" text-anchor="middle" font-size="12.5" font-weight="600" fill="#222">GPIO34</text>
<text x="215.0" y="226.5" text-anchor="end" font-size="13" font-weight="700" fill="#a07800">X MIN</text>
<circle cx="367.0" cy="250" r="6" fill="#d4a017" stroke="#8a6a00"/>
<rect x="227.0" y="239" width="118" height="22" rx="11" fill="#fff3b0" stroke="#a07800" stroke-width="1"/>
<text x="286.0" y="254.5" text-anchor="middle" font-size="12.5" font-weight="600" fill="#222">GPIO35</text>
<text x="215.0" y="254.5" text-anchor="end" font-size="13" font-weight="700" fill="#a07800">X MAX</text>
<circle cx="367.0" cy="278" r="6" fill="#d4a017" stroke="#8a6a00"/>
<rect x="227.0" y="267" width="118" height="22" rx="11" fill="#d7ecd9" stroke="#2e7d32" stroke-width="1"/>
<text x="286.0" y="282.5" text-anchor="middle" font-size="12.5" font-weight="600" fill="#222">GPIO32</text>
<text x="215.0" y="282.5" text-anchor="end" font-size="13" font-weight="700" fill="#2e7d32">STEP 4</text>
<circle cx="367.0" cy="306" r="6" fill="#d4a017" stroke="#8a6a00"/>
<rect x="227.0" y="295" width="118" height="22" rx="11" fill="#d7ecd9" stroke="#2e7d32" stroke-width="1"/>
<text x="286.0" y="310.5" text-anchor="middle" font-size="12.5" font-weight="600" fill="#222">GPIO33</text>
<text x="215.0" y="310.5" text-anchor="end" font-size="13" font-weight="700" fill="#2e7d32">DIR 4</text>
<circle cx="367.0" cy="334" r="6" fill="#d4a017" stroke="#8a6a00"/>
<rect x="227.0" y="323" width="118" height="22" rx="11" fill="#d7ecd9" stroke="#2e7d32" stroke-width="1"/>
<text x="286.0" y="338.5" text-anchor="middle" font-size="12.5" font-weight="600" fill="#222">GPIO25</text>
<text x="215.0" y="338.5" text-anchor="end" font-size="13" font-weight="700" fill="#2e7d32">STEP 2</text>
<circle cx="367.0" cy="362" r="6" fill="#d4a017" stroke="#8a6a00"/>
<rect x="227.0" y="351" width="118" height="22" rx="11" fill="#d7ecd9" stroke="#2e7d32" stroke-width="1"/>
<text x="286.0" y="366.5" text-anchor="middle" font-size="12.5" font-weight="600" fill="#222">GPIO26</text>
<text x="215.0" y="366.5" text-anchor="end" font-size="13" font-weight="700" fill="#2e7d32">DIR 2</text>
<circle cx="367.0" cy="390" r="6" fill="#d4a017" stroke="#8a6a00"/>
<rect x="227.0" y="379" width="118" height="22" rx="11" fill="#d7ecd9" stroke="#2e7d32" stroke-width="1"/>
<text x="286.0" y="394.5" text-anchor="middle" font-size="12.5" font-weight="600" fill="#222">GPIO27</text>
<text x="215.0" y="394.5" text-anchor="end" font-size="13" font-weight="700" fill="#2e7d32">STEP 1</text>
<circle cx="367.0" cy="418" r="6" fill="#d4a017" stroke="#8a6a00"/>
<rect x="227.0" y="407" width="118" height="22" rx="11" fill="#d7ecd9" stroke="#2e7d32" stroke-width="1"/>
<text x="286.0" y="422.5" text-anchor="middle" font-size="12.5" font-weight="600" fill="#222">GPIO14</text>
<text x="215.0" y="422.5" text-anchor="end" font-size="13" font-weight="700" fill="#2e7d32">DIR 1</text>
<circle cx="367.0" cy="446" r="6" fill="#d4a017" stroke="#8a6a00"/>
<rect x="227.0" y="435" width="118" height="22" rx="11" fill="#f6c9c4" stroke="#b3261e" stroke-width="1"/>
<text x="286.0" y="450.5" text-anchor="middle" font-size="12.5" font-weight="600" fill="#222">GPIO12</text>
<circle cx="367.0" cy="474" r="6" fill="#d4a017" stroke="#8a6a00"/>
<rect x="227.0" y="463" width="118" height="22" rx="11" fill="#e6e6e6" stroke="#444" stroke-width="1"/>
<text x="286.0" y="478.5" text-anchor="middle" font-size="12.5" font-weight="600" fill="#222">GND</text>
<circle cx="367.0" cy="502" r="6" fill="#d4a017" stroke="#8a6a00"/>
<rect x="227.0" y="491" width="118" height="22" rx="11" fill="#ffffff" stroke="#888" stroke-width="1"/>
<text x="286.0" y="506.5" text-anchor="middle" font-size="12.5" font-weight="600" fill="#222">GPIO13</text>
<circle cx="367.0" cy="530" r="6" fill="#d4a017" stroke="#8a6a00"/>
<rect x="227.0" y="519" width="118" height="22" rx="11" fill="#ffffff" stroke="#888" stroke-width="1"/>
<text x="286.0" y="534.5" text-anchor="middle" font-size="12.5" font-weight="600" fill="#222">SD2</text>
<circle cx="367.0" cy="558" r="6" fill="#d4a017" stroke="#8a6a00"/>
<rect x="227.0" y="547" width="118" height="22" rx="11" fill="#ffffff" stroke="#888" stroke-width="1"/>
<text x="286.0" y="562.5" text-anchor="middle" font-size="12.5" font-weight="600" fill="#222">SD3</text>
<circle cx="367.0" cy="586" r="6" fill="#d4a017" stroke="#8a6a00"/>
<rect x="227.0" y="575" width="118" height="22" rx="11" fill="#ffffff" stroke="#888" stroke-width="1"/>
<text x="286.0" y="590.5" text-anchor="middle" font-size="12.5" font-weight="600" fill="#222">CMD</text>
<circle cx="367.0" cy="614" r="6" fill="#d4a017" stroke="#8a6a00"/>
<rect x="227.0" y="603" width="118" height="22" rx="11" fill="#fde3cc" stroke="#b35a00" stroke-width="1"/>
<text x="286.0" y="618.5" text-anchor="middle" font-size="12.5" font-weight="600" fill="#222">5V</text>
<circle cx="493.0" cy="110" r="6" fill="#d4a017" stroke="#8a6a00"/>
<rect x="515.0" y="99" width="118" height="22" rx="11" fill="#e6e6e6" stroke="#444" stroke-width="1"/>
<text x="574.0" y="114.5" text-anchor="middle" font-size="12.5" font-weight="600" fill="#222">GND</text>
<circle cx="493.0" cy="138" r="6" fill="#d4a017" stroke="#8a6a00"/>
<rect x="515.0" y="127" width="118" height="22" rx="11" fill="#fff3b0" stroke="#a07800" stroke-width="1"/>
<text x="574.0" y="142.5" text-anchor="middle" font-size="12.5" font-weight="600" fill="#222">GPIO23</text>
<text x="645.0" y="142.5" text-anchor="start" font-size="13" font-weight="700" fill="#a07800">Z MIN</text>
<circle cx="493.0" cy="166" r="6" fill="#d4a017" stroke="#8a6a00"/>
<rect x="515.0" y="155" width="118" height="22" rx="11" fill="#fff3b0" stroke="#a07800" stroke-width="1"/>
<text x="574.0" y="170.5" text-anchor="middle" font-size="12.5" font-weight="600" fill="#222">GPIO22</text>
<text x="645.0" y="170.5" text-anchor="start" font-size="13" font-weight="700" fill="#a07800">Z MAX · I²C SCL</text>
<circle cx="493.0" cy="194" r="6" fill="#d4a017" stroke="#8a6a00"/>
<rect x="515.0" y="183" width="118" height="22" rx="11" fill="#ffffff" stroke="#888" stroke-width="1"/>
<text x="574.0" y="198.5" text-anchor="middle" font-size="12.5" font-weight="600" fill="#222">TX0</text>
<circle cx="493.0" cy="222" r="6" fill="#d4a017" stroke="#8a6a00"/>
<rect x="515.0" y="211" width="118" height="22" rx="11" fill="#ffffff" stroke="#888" stroke-width="1"/>
<text x="574.0" y="226.5" text-anchor="middle" font-size="12.5" font-weight="600" fill="#222">RX0</text>
<circle cx="493.0" cy="250" r="6" fill="#d4a017" stroke="#8a6a00"/>
<rect x="515.0" y="239" width="118" height="22" rx="11" fill="#d6e6fb" stroke="#1f5fae" stroke-width="1"/>
<text x="574.0" y="254.5" text-anchor="middle" font-size="12.5" font-weight="600" fill="#222">GPIO21</text>
<text x="645.0" y="254.5" text-anchor="start" font-size="13" font-weight="700" fill="#1f5fae">DHT11 DATA · I²C SDA</text>
<circle cx="493.0" cy="278" r="6" fill="#d4a017" stroke="#8a6a00"/>
<rect x="515.0" y="267" width="118" height="22" rx="11" fill="#e6e6e6" stroke="#444" stroke-width="1"/>
<text x="574.0" y="282.5" text-anchor="middle" font-size="12.5" font-weight="600" fill="#222">GND</text>
<circle cx="493.0" cy="306" r="6" fill="#d4a017" stroke="#8a6a00"/>
<rect x="515.0" y="295" width="118" height="22" rx="11" fill="#d7ecd9" stroke="#2e7d32" stroke-width="1"/>
<text x="574.0" y="310.5" text-anchor="middle" font-size="12.5" font-weight="600" fill="#222">GPIO19</text>
<text x="645.0" y="310.5" text-anchor="start" font-size="13" font-weight="700" fill="#2e7d32">STEP 3</text>
<circle cx="493.0" cy="334" r="6" fill="#d4a017" stroke="#8a6a00"/>
<rect x="515.0" y="323" width="118" height="22" rx="11" fill="#d7ecd9" stroke="#2e7d32" stroke-width="1"/>
<text x="574.0" y="338.5" text-anchor="middle" font-size="12.5" font-weight="600" fill="#222">GPIO18</text>
<text x="645.0" y="338.5" text-anchor="start" font-size="13" font-weight="700" fill="#2e7d32">DIR 3</text>
<circle cx="493.0" cy="362" r="6" fill="#d4a017" stroke="#8a6a00"/>
<rect x="515.0" y="351" width="118" height="22" rx="11" fill="#f6c9c4" stroke="#b3261e" stroke-width="1"/>
<text x="574.0" y="366.5" text-anchor="middle" font-size="12.5" font-weight="600" fill="#222">GPIO5</text>
<circle cx="493.0" cy="390" r="6" fill="#d4a017" stroke="#8a6a00"/>
<rect x="515.0" y="379" width="118" height="22" rx="11" fill="#f3dcea" stroke="#9c2a6b" stroke-width="1"/>
<text x="574.0" y="394.5" text-anchor="middle" font-size="12.5" font-weight="600" fill="#222">GPIO17</text>
<text x="645.0" y="394.5" text-anchor="start" font-size="13" font-weight="700" fill="#9c2a6b">LED G</text>
<circle cx="493.0" cy="418" r="6" fill="#d4a017" stroke="#8a6a00"/>
<rect x="515.0" y="407" width="118" height="22" rx="11" fill="#f3dcea" stroke="#9c2a6b" stroke-width="1"/>
<text x="574.0" y="422.5" text-anchor="middle" font-size="12.5" font-weight="600" fill="#222">GPIO16</text>
<text x="645.0" y="422.5" text-anchor="start" font-size="13" font-weight="700" fill="#9c2a6b">LED R</text>
<circle cx="493.0" cy="446" r="6" fill="#d4a017" stroke="#8a6a00"/>
<rect x="515.0" y="435" width="118" height="22" rx="11" fill="#f3dcea" stroke="#9c2a6b" stroke-width="1"/>
<text x="574.0" y="450.5" text-anchor="middle" font-size="12.5" font-weight="600" fill="#222">GPIO4</text>
<text x="645.0" y="450.5" text-anchor="start" font-size="13" font-weight="700" fill="#9c2a6b">LED B</text>
<circle cx="493.0" cy="474" r="6" fill="#d4a017" stroke="#8a6a00"/>
<rect x="515.0" y="463" width="118" height="22" rx="11" fill="#f6c9c4" stroke="#b3261e" stroke-width="1"/>
<text x="574.0" y="478.5" text-anchor="middle" font-size="12.5" font-weight="600" fill="#222">GPIO0</text>
<circle cx="493.0" cy="502" r="6" fill="#d4a017" stroke="#8a6a00"/>
<rect x="515.0" y="491" width="118" height="22" rx="11" fill="#f6c9c4" stroke="#b3261e" stroke-width="1"/>
<text x="574.0" y="506.5" text-anchor="middle" font-size="12.5" font-weight="600" fill="#222">GPIO2</text>
<circle cx="493.0" cy="530" r="6" fill="#d4a017" stroke="#8a6a00"/>
<rect x="515.0" y="519" width="118" height="22" rx="11" fill="#f6c9c4" stroke="#b3261e" stroke-width="1"/>
<text x="574.0" y="534.5" text-anchor="middle" font-size="12.5" font-weight="600" fill="#222">GPIO15</text>
<circle cx="493.0" cy="558" r="6" fill="#d4a017" stroke="#8a6a00"/>
<rect x="515.0" y="547" width="118" height="22" rx="11" fill="#ffffff" stroke="#888" stroke-width="1"/>
<text x="574.0" y="562.5" text-anchor="middle" font-size="12.5" font-weight="600" fill="#222">SD1</text>
<circle cx="493.0" cy="586" r="6" fill="#d4a017" stroke="#8a6a00"/>
<rect x="515.0" y="575" width="118" height="22" rx="11" fill="#ffffff" stroke="#888" stroke-width="1"/>
<text x="574.0" y="590.5" text-anchor="middle" font-size="12.5" font-weight="600" fill="#222">SD0</text>
<circle cx="493.0" cy="614" r="6" fill="#d4a017" stroke="#8a6a00"/>
<rect x="515.0" y="603" width="118" height="22" rx="11" fill="#ffffff" stroke="#888" stroke-width="1"/>
<text x="574.0" y="618.5" text-anchor="middle" font-size="12.5" font-weight="600" fill="#222">CLK</text>
<rect x="5" y="672" width="16" height="16" rx="4" fill="#d7ecd9" stroke="#2e7d32"/>
<text x="27" y="685" font-size="12.5" fill="#333">Stepper STEP / DIR</text>
<rect x="175" y="672" width="16" height="16" rx="4" fill="#fff3b0" stroke="#a07800"/>
<text x="197" y="685" font-size="12.5" fill="#333">Limit switch</text>
<rect x="303" y="672" width="16" height="16" rx="4" fill="#f3dcea" stroke="#9c2a6b"/>
<text x="325" y="685" font-size="12.5" fill="#333">RGB LED</text>
<rect x="396" y="672" width="16" height="16" rx="4" fill="#d6e6fb" stroke="#1f5fae"/>
<text x="418" y="685" font-size="12.5" fill="#333">Temp sensor</text>
<rect x="517" y="672" width="16" height="16" rx="4" fill="#f6c9c4" stroke="#b3261e"/>
<text x="539" y="685" font-size="12.5" fill="#333">Strapping pin: keep free</text>
<rect x="729" y="672" width="16" height="16" rx="4" fill="#fde3cc" stroke="#b35a00"/>
<text x="751" y="685" font-size="12.5" fill="#333">Power</text>
<rect x="808" y="672" width="16" height="16" rx="4" fill="#e6e6e6" stroke="#444"/>
<text x="830" y="685" font-size="12.5" fill="#333">Ground</text>
<text x="430.0" y="724" text-anchor="middle" font-size="12" fill="#666">GPIO 34/35/36/39 are input-only with no internal pull-up: R1–R4 (10 kΩ) on the board provide it.</text>
<text x="430.0" y="744" text-anchor="middle" font-size="12" fill="#666">The I²C display shares GPIO21 with the DHT11 and GPIO22 with Z MAX.</text>
</g>
</svg>